<svg width="200" height="144" viewBox="0 0 200 144" fill="none" xmlns="http://www.w3.org/2000/svg">
<path d="M199 51L143.5 1C129.5 29 33 58 1 51V143C105 140.2 177.167 82.1667 199 51Z" fill="#325CE5" stroke="#325CE5"/>
<path d="M83.7784 82.6364C83.7784 83.5881 83.598 84.3977 83.2372 85.0653C82.8793 85.733 82.3906 86.2429 81.7713 86.5952C81.1548 86.9446 80.4616 87.1193 79.6918 87.1193C78.9162 87.1193 78.2202 86.9432 77.6037 86.5909C76.9872 86.2386 76.5 85.7287 76.142 85.0611C75.7841 84.3935 75.6051 83.5852 75.6051 82.6364C75.6051 81.6847 75.7841 80.875 76.142 80.2074C76.5 79.5398 76.9872 79.0312 77.6037 78.6818C78.2202 78.3295 78.9162 78.1534 79.6918 78.1534C80.4616 78.1534 81.1548 78.3295 81.7713 78.6818C82.3906 79.0312 82.8793 79.5398 83.2372 80.2074C83.598 80.875 83.7784 81.6847 83.7784 82.6364ZM81.9077 82.6364C81.9077 82.0199 81.8153 81.5 81.6307 81.0767C81.4489 80.6534 81.1918 80.3324 80.8594 80.1136C80.527 79.8949 80.1378 79.7855 79.6918 79.7855C79.2457 79.7855 78.8565 79.8949 78.5241 80.1136C78.1918 80.3324 77.9332 80.6534 77.7486 81.0767C77.5668 81.5 77.4759 82.0199 77.4759 82.6364C77.4759 83.2528 77.5668 83.7727 77.7486 84.196C77.9332 84.6193 78.1918 84.9403 78.5241 85.1591C78.8565 85.3778 79.2457 85.4872 79.6918 85.4872C80.1378 85.4872 80.527 85.3778 80.8594 85.1591C81.1918 84.9403 81.4489 84.6193 81.6307 84.196C81.8153 83.7727 81.9077 83.2528 81.9077 82.6364ZM85.1112 87V80.4545H86.8711V81.5966H86.9393C87.0586 81.1903 87.2589 80.8835 87.5401 80.6761C87.8214 80.4659 88.1452 80.3608 88.5117 80.3608C88.6026 80.3608 88.7006 80.3665 88.8058 80.3778C88.9109 80.3892 89.0032 80.4048 89.0827 80.4247V82.0355C88.9975 82.0099 88.8796 81.9872 88.729 81.9673C88.5785 81.9474 88.4407 81.9375 88.3157 81.9375C88.0487 81.9375 87.81 81.9957 87.5998 82.1122C87.3924 82.2259 87.2276 82.3849 87.1055 82.5895C86.9862 82.794 86.9265 83.0298 86.9265 83.2969V87H85.1112ZM92.674 87.1278C92.0121 87.1278 91.4396 86.9872 90.9567 86.706C90.4766 86.4219 90.1058 86.027 89.8445 85.5213C89.5831 85.0128 89.4524 84.4233 89.4524 83.7528C89.4524 83.0767 89.5831 82.4858 89.8445 81.9801C90.1058 81.4716 90.4766 81.0767 90.9567 80.7955C91.4396 80.5114 92.0121 80.3693 92.674 80.3693C93.3359 80.3693 93.907 80.5114 94.3871 80.7955C94.87 81.0767 95.2422 81.4716 95.5036 81.9801C95.7649 82.4858 95.8956 83.0767 95.8956 83.7528C95.8956 84.4233 95.7649 85.0128 95.5036 85.5213C95.2422 86.027 94.87 86.4219 94.3871 86.706C93.907 86.9872 93.3359 87.1278 92.674 87.1278ZM92.6825 85.7216C92.9837 85.7216 93.2351 85.6364 93.4368 85.4659C93.6385 85.2926 93.7905 85.0568 93.8928 84.7585C93.9979 84.4602 94.0504 84.1207 94.0504 83.7401C94.0504 83.3594 93.9979 83.0199 93.8928 82.7216C93.7905 82.4233 93.6385 82.1875 93.4368 82.0142C93.2351 81.8409 92.9837 81.7543 92.6825 81.7543C92.3786 81.7543 92.1229 81.8409 91.9155 82.0142C91.7109 82.1875 91.5561 82.4233 91.451 82.7216C91.3487 83.0199 91.2976 83.3594 91.2976 83.7401C91.2976 84.1207 91.3487 84.4602 91.451 84.7585C91.5561 85.0568 91.7109 85.2926 91.9155 85.4659C92.1229 85.6364 92.3786 85.7216 92.6825 85.7216ZM99.7042 85.4659V84.0128L103.348 78.2727H104.6V80.2841H103.859L101.562 83.919V83.9872H106.74V85.4659H99.7042ZM103.893 87V85.0227L103.927 84.3793V78.2727H105.657V87H103.893Z" fill="white"/>
</svg>
