<svg width="234" height="152" viewBox="0 0 234 152" fill="none" xmlns="http://www.w3.org/2000/svg">
<path d="M67.5 1C115.9 62.2 198 66.8333 233 61.5V149C106.6 163.8 22.8333 89.8333 1 55.5L67.5 1Z" fill="#325CE5" stroke="#325CE5"/>
<path d="M127.778 92.6364C127.778 93.5881 127.598 94.3977 127.237 95.0653C126.879 95.733 126.391 96.2429 125.771 96.5952C125.155 96.9446 124.462 97.1193 123.692 97.1193C122.916 97.1193 122.22 96.9432 121.604 96.5909C120.987 96.2386 120.5 95.7287 120.142 95.0611C119.784 94.3935 119.605 93.5852 119.605 92.6364C119.605 91.6847 119.784 90.875 120.142 90.2074C120.5 89.5398 120.987 89.0312 121.604 88.6818C122.22 88.3295 122.916 88.1534 123.692 88.1534C124.462 88.1534 125.155 88.3295 125.771 88.6818C126.391 89.0312 126.879 89.5398 127.237 90.2074C127.598 90.875 127.778 91.6847 127.778 92.6364ZM125.908 92.6364C125.908 92.0199 125.815 91.5 125.631 91.0767C125.449 90.6534 125.192 90.3324 124.859 90.1136C124.527 89.8949 124.138 89.7855 123.692 89.7855C123.246 89.7855 122.857 89.8949 122.524 90.1136C122.192 90.3324 121.933 90.6534 121.749 91.0767C121.567 91.5 121.476 92.0199 121.476 92.6364C121.476 93.2528 121.567 93.7727 121.749 94.196C121.933 94.6193 122.192 94.9403 122.524 95.1591C122.857 95.3778 123.246 95.4872 123.692 95.4872C124.138 95.4872 124.527 95.3778 124.859 95.1591C125.192 94.9403 125.449 94.6193 125.631 94.196C125.815 93.7727 125.908 93.2528 125.908 92.6364ZM129.111 97V90.4545H130.871V91.5966H130.939C131.059 91.1903 131.259 90.8835 131.54 90.6761C131.821 90.4659 132.145 90.3608 132.512 90.3608C132.603 90.3608 132.701 90.3665 132.806 90.3778C132.911 90.3892 133.003 90.4048 133.083 90.4247V92.0355C132.998 92.0099 132.88 91.9872 132.729 91.9673C132.578 91.9474 132.441 91.9375 132.316 91.9375C132.049 91.9375 131.81 91.9957 131.6 92.1122C131.392 92.2259 131.228 92.3849 131.105 92.5895C130.986 92.794 130.926 93.0298 130.926 93.2969V97H129.111ZM136.674 97.1278C136.012 97.1278 135.44 96.9872 134.957 96.706C134.477 96.4219 134.106 96.027 133.844 95.5213C133.583 95.0128 133.452 94.4233 133.452 93.7528C133.452 93.0767 133.583 92.4858 133.844 91.9801C134.106 91.4716 134.477 91.0767 134.957 90.7955C135.44 90.5114 136.012 90.3693 136.674 90.3693C137.336 90.3693 137.907 90.5114 138.387 90.7955C138.87 91.0767 139.242 91.4716 139.504 91.9801C139.765 92.4858 139.896 93.0767 139.896 93.7528C139.896 94.4233 139.765 95.0128 139.504 95.5213C139.242 96.027 138.87 96.4219 138.387 96.706C137.907 96.9872 137.336 97.1278 136.674 97.1278ZM136.683 95.7216C136.984 95.7216 137.235 95.6364 137.437 95.4659C137.638 95.2926 137.79 95.0568 137.893 94.7585C137.998 94.4602 138.05 94.1207 138.05 93.7401C138.05 93.3594 137.998 93.0199 137.893 92.7216C137.79 92.4233 137.638 92.1875 137.437 92.0142C137.235 91.8409 136.984 91.7543 136.683 91.7543C136.379 91.7543 136.123 91.8409 135.915 92.0142C135.711 92.1875 135.556 92.4233 135.451 92.7216C135.349 93.0199 135.298 93.3594 135.298 93.7401C135.298 94.1207 135.349 94.4602 135.451 94.7585C135.556 95.0568 135.711 95.2926 135.915 95.4659C136.123 95.6364 136.379 95.7216 136.683 95.7216ZM147.024 97.1193C146.422 97.1193 145.885 97.0085 145.413 96.7869C144.944 96.5653 144.572 96.2599 144.297 95.8707C144.021 95.4815 143.877 95.0355 143.866 94.5327H145.656C145.676 94.8707 145.818 95.1449 146.082 95.3551C146.346 95.5653 146.66 95.6705 147.024 95.6705C147.314 95.6705 147.569 95.6065 147.791 95.4787C148.015 95.348 148.19 95.1676 148.315 94.9375C148.443 94.7045 148.507 94.4375 148.507 94.1364C148.507 93.8295 148.441 93.5597 148.311 93.3267C148.183 93.0937 148.005 92.9119 147.778 92.7812C147.551 92.6506 147.291 92.5838 146.998 92.581C146.743 92.581 146.494 92.6335 146.252 92.7386C146.014 92.8437 145.828 92.9872 145.694 93.169L144.054 92.875L144.467 88.2727H149.802V89.7812H145.988L145.762 91.9673H145.814C145.967 91.7514 146.199 91.5724 146.508 91.4304C146.818 91.2884 147.164 91.2173 147.548 91.2173C148.074 91.2173 148.542 91.3409 148.954 91.5881C149.366 91.8352 149.691 92.1747 149.93 92.6065C150.169 93.0355 150.287 93.5298 150.284 94.0895C150.287 94.6776 150.15 95.2003 149.875 95.6577C149.602 96.1122 149.22 96.4702 148.728 96.7315C148.24 96.9901 147.672 97.1193 147.024 97.1193Z" fill="white"/>
</svg>
