<svg width="230" height="203" viewBox="0 0 230 203" fill="none" xmlns="http://www.w3.org/2000/svg">
<path d="M0.5 95.5V1C137 17.5 206 108 228.5 158.5L165 202C123 140.4 37.3333 103.833 0.5 95.5Z" fill="#325CE5" stroke="#325CE5"/>
<path d="M107.778 93.6364C107.778 94.5881 107.598 95.3977 107.237 96.0653C106.879 96.733 106.391 97.2429 105.771 97.5952C105.155 97.9446 104.462 98.1193 103.692 98.1193C102.916 98.1193 102.22 97.9432 101.604 97.5909C100.987 97.2386 100.5 96.7287 100.142 96.0611C99.7841 95.3935 99.6051 94.5852 99.6051 93.6364C99.6051 92.6847 99.7841 91.875 100.142 91.2074C100.5 90.5398 100.987 90.0312 101.604 89.6818C102.22 89.3295 102.916 89.1534 103.692 89.1534C104.462 89.1534 105.155 89.3295 105.771 89.6818C106.391 90.0312 106.879 90.5398 107.237 91.2074C107.598 91.875 107.778 92.6847 107.778 93.6364ZM105.908 93.6364C105.908 93.0199 105.815 92.5 105.631 92.0767C105.449 91.6534 105.192 91.3324 104.859 91.1136C104.527 90.8949 104.138 90.7855 103.692 90.7855C103.246 90.7855 102.857 90.8949 102.524 91.1136C102.192 91.3324 101.933 91.6534 101.749 92.0767C101.567 92.5 101.476 93.0199 101.476 93.6364C101.476 94.2528 101.567 94.7727 101.749 95.196C101.933 95.6193 102.192 95.9403 102.524 96.1591C102.857 96.3778 103.246 96.4872 103.692 96.4872C104.138 96.4872 104.527 96.3778 104.859 96.1591C105.192 95.9403 105.449 95.6193 105.631 95.196C105.815 94.7727 105.908 94.2528 105.908 93.6364ZM109.111 98V91.4545H110.871V92.5966H110.939C111.059 92.1903 111.259 91.8835 111.54 91.6761C111.821 91.4659 112.145 91.3608 112.512 91.3608C112.603 91.3608 112.701 91.3665 112.806 91.3778C112.911 91.3892 113.003 91.4048 113.083 91.4247V93.0355C112.998 93.0099 112.88 92.9872 112.729 92.9673C112.578 92.9474 112.441 92.9375 112.316 92.9375C112.049 92.9375 111.81 92.9957 111.6 93.1122C111.392 93.2259 111.228 93.3849 111.105 93.5895C110.986 93.794 110.926 94.0298 110.926 94.2969V98H109.111ZM116.674 98.1278C116.012 98.1278 115.44 97.9872 114.957 97.706C114.477 97.4219 114.106 97.027 113.844 96.5213C113.583 96.0128 113.452 95.4233 113.452 94.7528C113.452 94.0767 113.583 93.4858 113.844 92.9801C114.106 92.4716 114.477 92.0767 114.957 91.7955C115.44 91.5114 116.012 91.3693 116.674 91.3693C117.336 91.3693 117.907 91.5114 118.387 91.7955C118.87 92.0767 119.242 92.4716 119.504 92.9801C119.765 93.4858 119.896 94.0767 119.896 94.7528C119.896 95.4233 119.765 96.0128 119.504 96.5213C119.242 97.027 118.87 97.4219 118.387 97.706C117.907 97.9872 117.336 98.1278 116.674 98.1278ZM116.683 96.7216C116.984 96.7216 117.235 96.6364 117.437 96.4659C117.638 96.2926 117.79 96.0568 117.893 95.7585C117.998 95.4602 118.05 95.1207 118.05 94.7401C118.05 94.3594 117.998 94.0199 117.893 93.7216C117.79 93.4233 117.638 93.1875 117.437 93.0142C117.235 92.8409 116.984 92.7543 116.683 92.7543C116.379 92.7543 116.123 92.8409 115.915 93.0142C115.711 93.1875 115.556 93.4233 115.451 93.7216C115.349 94.0199 115.298 94.3594 115.298 94.7401C115.298 95.1207 115.349 95.4602 115.451 95.7585C115.556 96.0568 115.711 96.2926 115.915 96.4659C116.123 96.6364 116.379 96.7216 116.683 96.7216ZM127.633 89.2727V98H125.788V91.0241H125.737L123.738 92.277V90.6406L125.899 89.2727H127.633Z" fill="white"/>
</svg>
