<svg width="161" height="215" viewBox="0 0 161 215" fill="none" xmlns="http://www.w3.org/2000/svg">
<path d="M159.5 159L91 213.5C14.2 154.7 -0.666678 47 1.49999 0.5H106.5C107.3 76.5 142.167 137.833 159.5 159Z" fill="#325CE5" stroke="#325CE5"/>
<path d="M61.7784 103.636C61.7784 104.588 61.598 105.398 61.2372 106.065C60.8793 106.733 60.3906 107.243 59.7713 107.595C59.1548 107.945 58.4616 108.119 57.6918 108.119C56.9162 108.119 56.2202 107.943 55.6037 107.591C54.9872 107.239 54.5 106.729 54.142 106.061C53.7841 105.393 53.6051 104.585 53.6051 103.636C53.6051 102.685 53.7841 101.875 54.142 101.207C54.5 100.54 54.9872 100.031 55.6037 99.6818C56.2202 99.3295 56.9162 99.1534 57.6918 99.1534C58.4616 99.1534 59.1548 99.3295 59.7713 99.6818C60.3906 100.031 60.8793 100.54 61.2372 101.207C61.598 101.875 61.7784 102.685 61.7784 103.636ZM59.9077 103.636C59.9077 103.02 59.8153 102.5 59.6307 102.077C59.4489 101.653 59.1918 101.332 58.8594 101.114C58.527 100.895 58.1378 100.786 57.6918 100.786C57.2457 100.786 56.8565 100.895 56.5241 101.114C56.1918 101.332 55.9332 101.653 55.7486 102.077C55.5668 102.5 55.4759 103.02 55.4759 103.636C55.4759 104.253 55.5668 104.773 55.7486 105.196C55.9332 105.619 56.1918 105.94 56.5241 106.159C56.8565 106.378 57.2457 106.487 57.6918 106.487C58.1378 106.487 58.527 106.378 58.8594 106.159C59.1918 105.94 59.4489 105.619 59.6307 105.196C59.8153 104.773 59.9077 104.253 59.9077 103.636ZM63.1112 108V101.455H64.8711V102.597H64.9393C65.0586 102.19 65.2589 101.884 65.5401 101.676C65.8214 101.466 66.1452 101.361 66.5117 101.361C66.6026 101.361 66.7006 101.366 66.8058 101.378C66.9109 101.389 67.0032 101.405 67.0827 101.425V103.036C66.9975 103.01 66.8796 102.987 66.729 102.967C66.5785 102.947 66.4407 102.938 66.3157 102.938C66.0487 102.938 65.81 102.996 65.5998 103.112C65.3924 103.226 65.2276 103.385 65.1055 103.589C64.9862 103.794 64.9265 104.03 64.9265 104.297V108H63.1112ZM70.674 108.128C70.0121 108.128 69.4396 107.987 68.9567 107.706C68.4766 107.422 68.1058 107.027 67.8445 106.521C67.5831 106.013 67.4524 105.423 67.4524 104.753C67.4524 104.077 67.5831 103.486 67.8445 102.98C68.1058 102.472 68.4766 102.077 68.9567 101.795C69.4396 101.511 70.0121 101.369 70.674 101.369C71.3359 101.369 71.907 101.511 72.3871 101.795C72.87 102.077 73.2422 102.472 73.5036 102.98C73.7649 103.486 73.8956 104.077 73.8956 104.753C73.8956 105.423 73.7649 106.013 73.5036 106.521C73.2422 107.027 72.87 107.422 72.3871 107.706C71.907 107.987 71.3359 108.128 70.674 108.128ZM70.6825 106.722C70.9837 106.722 71.2351 106.636 71.4368 106.466C71.6385 106.293 71.7905 106.057 71.8928 105.759C71.9979 105.46 72.0504 105.121 72.0504 104.74C72.0504 104.359 71.9979 104.02 71.8928 103.722C71.7905 103.423 71.6385 103.187 71.4368 103.014C71.2351 102.841 70.9837 102.754 70.6825 102.754C70.3786 102.754 70.1229 102.841 69.9155 103.014C69.7109 103.187 69.5561 103.423 69.451 103.722C69.3487 104.02 69.2976 104.359 69.2976 104.74C69.2976 105.121 69.3487 105.46 69.451 105.759C69.5561 106.057 69.7109 106.293 69.9155 106.466C70.1229 106.636 70.3786 106.722 70.6825 106.722ZM81.1857 108.119C80.7369 108.116 80.3036 108.041 79.886 107.893C79.4712 107.746 79.0991 107.506 78.7695 107.173C78.44 106.841 78.1786 106.401 77.9854 105.852C77.7951 105.304 77.6999 104.631 77.6999 103.832C77.7028 103.099 77.7866 102.445 77.9513 101.868C78.119 101.288 78.3576 100.797 78.6673 100.393C78.9798 99.9901 79.3533 99.6832 79.788 99.473C80.2227 99.2599 80.7099 99.1534 81.2496 99.1534C81.832 99.1534 82.3462 99.267 82.7923 99.4943C83.2383 99.7187 83.5962 100.024 83.8661 100.411C84.1388 100.797 84.3036 101.23 84.3604 101.71H82.5408C82.4698 101.406 82.3207 101.168 82.0934 100.994C81.8661 100.821 81.5849 100.734 81.2496 100.734C80.6815 100.734 80.2496 100.982 79.9542 101.476C79.6616 101.97 79.5124 102.642 79.5067 103.491H79.5664C79.6971 103.233 79.8732 103.013 80.0948 102.831C80.3192 102.646 80.5735 102.506 80.8576 102.409C81.1445 102.31 81.4471 102.26 81.7653 102.26C82.2823 102.26 82.7425 102.382 83.146 102.626C83.5494 102.868 83.8675 103.2 84.1005 103.624C84.3335 104.047 84.4499 104.531 84.4499 105.077C84.4499 105.668 84.3121 106.193 84.0366 106.653C83.7638 107.114 83.3817 107.474 82.8903 107.736C82.4016 107.994 81.8335 108.122 81.1857 108.119ZM81.1772 106.67C81.4613 106.67 81.7156 106.602 81.94 106.466C82.1644 106.33 82.3406 106.145 82.4684 105.912C82.5962 105.679 82.6602 105.418 82.6602 105.128C82.6602 104.838 82.5962 104.578 82.4684 104.348C82.3434 104.118 82.1701 103.935 81.9485 103.798C81.7269 103.662 81.4741 103.594 81.19 103.594C80.9769 103.594 80.7795 103.634 80.5977 103.713C80.4187 103.793 80.261 103.903 80.1246 104.045C79.9911 104.187 79.886 104.352 79.8093 104.54C79.7326 104.724 79.6942 104.922 79.6942 105.132C79.6942 105.413 79.7582 105.67 79.886 105.903C80.0167 106.136 80.1928 106.322 80.4144 106.462C80.6388 106.601 80.8931 106.67 81.1772 106.67Z" fill="white"/>
</svg>
