<svg width="134" height="206" viewBox="0 0 134 206" fill="none" xmlns="http://www.w3.org/2000/svg">
<path d="M132.5 1H57C57 83.8 19.6667 142.5 1 161.5L53 204.5C121.4 161.7 134.5 51 132.5 1Z" fill="#325CE5" stroke="#325CE5"/>
<path d="M72.7784 96.6364C72.7784 97.5881 72.598 98.3977 72.2372 99.0653C71.8793 99.733 71.3906 100.243 70.7713 100.595C70.1548 100.945 69.4616 101.119 68.6918 101.119C67.9162 101.119 67.2202 100.943 66.6037 100.591C65.9872 100.239 65.5 99.7287 65.142 99.0611C64.7841 98.3935 64.6051 97.5852 64.6051 96.6364C64.6051 95.6847 64.7841 94.875 65.142 94.2074C65.5 93.5398 65.9872 93.0312 66.6037 92.6818C67.2202 92.3295 67.9162 92.1534 68.6918 92.1534C69.4616 92.1534 70.1548 92.3295 70.7713 92.6818C71.3906 93.0312 71.8793 93.5398 72.2372 94.2074C72.598 94.875 72.7784 95.6847 72.7784 96.6364ZM70.9077 96.6364C70.9077 96.0199 70.8153 95.5 70.6307 95.0767C70.4489 94.6534 70.1918 94.3324 69.8594 94.1136C69.527 93.8949 69.1378 93.7855 68.6918 93.7855C68.2457 93.7855 67.8565 93.8949 67.5241 94.1136C67.1918 94.3324 66.9332 94.6534 66.7486 95.0767C66.5668 95.5 66.4759 96.0199 66.4759 96.6364C66.4759 97.2528 66.5668 97.7727 66.7486 98.196C66.9332 98.6193 67.1918 98.9403 67.5241 99.1591C67.8565 99.3778 68.2457 99.4872 68.6918 99.4872C69.1378 99.4872 69.527 99.3778 69.8594 99.1591C70.1918 98.9403 70.4489 98.6193 70.6307 98.196C70.8153 97.7727 70.9077 97.2528 70.9077 96.6364ZM74.1112 101V94.4545H75.8711V95.5966H75.9393C76.0586 95.1903 76.2589 94.8835 76.5401 94.6761C76.8214 94.4659 77.1452 94.3608 77.5117 94.3608C77.6026 94.3608 77.7006 94.3665 77.8058 94.3778C77.9109 94.3892 78.0032 94.4048 78.0827 94.4247V96.0355C77.9975 96.0099 77.8796 95.9872 77.729 95.9673C77.5785 95.9474 77.4407 95.9375 77.3157 95.9375C77.0487 95.9375 76.81 95.9957 76.5998 96.1122C76.3924 96.2259 76.2276 96.3849 76.1055 96.5895C75.9862 96.794 75.9265 97.0298 75.9265 97.2969V101H74.1112ZM81.674 101.128C81.0121 101.128 80.4396 100.987 79.9567 100.706C79.4766 100.422 79.1058 100.027 78.8445 99.5213C78.5831 99.0128 78.4524 98.4233 78.4524 97.7528C78.4524 97.0767 78.5831 96.4858 78.8445 95.9801C79.1058 95.4716 79.4766 95.0767 79.9567 94.7955C80.4396 94.5114 81.0121 94.3693 81.674 94.3693C82.3359 94.3693 82.907 94.5114 83.3871 94.7955C83.87 95.0767 84.2422 95.4716 84.5036 95.9801C84.7649 96.4858 84.8956 97.0767 84.8956 97.7528C84.8956 98.4233 84.7649 99.0128 84.5036 99.5213C84.2422 100.027 83.87 100.422 83.3871 100.706C82.907 100.987 82.3359 101.128 81.674 101.128ZM81.6825 99.7216C81.9837 99.7216 82.2351 99.6364 82.4368 99.4659C82.6385 99.2926 82.7905 99.0568 82.8928 98.7585C82.9979 98.4602 83.0504 98.1207 83.0504 97.7401C83.0504 97.3594 82.9979 97.0199 82.8928 96.7216C82.7905 96.4233 82.6385 96.1875 82.4368 96.0142C82.2351 95.8409 81.9837 95.7543 81.6825 95.7543C81.3786 95.7543 81.1229 95.8409 80.9155 96.0142C80.7109 96.1875 80.5561 96.4233 80.451 96.7216C80.3487 97.0199 80.2976 97.3594 80.2976 97.7401C80.2976 98.1207 80.3487 98.4602 80.451 98.7585C80.5561 99.0568 80.7109 99.2926 80.9155 99.4659C81.1229 99.6364 81.3786 99.7216 81.6825 99.7216ZM92.0621 101.119C91.4258 101.119 90.859 101.01 90.3619 100.791C89.8675 100.57 89.4769 100.266 89.19 99.8793C88.9059 99.4901 88.7596 99.0412 88.7511 98.5327H90.609C90.6204 98.7457 90.69 98.9332 90.8178 99.0952C90.9485 99.2543 91.1218 99.3778 91.3377 99.4659C91.5536 99.554 91.7965 99.598 92.0664 99.598C92.3477 99.598 92.5962 99.5483 92.8121 99.4489C93.0281 99.3494 93.1971 99.2116 93.3192 99.0355C93.4414 98.8594 93.5025 98.6562 93.5025 98.4261C93.5025 98.1932 93.4371 97.9872 93.3065 97.8082C93.1786 97.6264 92.994 97.4844 92.7525 97.3821C92.5138 97.2798 92.2298 97.2287 91.9002 97.2287H91.0863V95.8736H91.9002C92.1786 95.8736 92.4244 95.8253 92.6374 95.7287C92.8533 95.6321 93.021 95.4986 93.1403 95.3281C93.2596 95.1548 93.3192 94.9531 93.3192 94.723C93.3192 94.5043 93.2667 94.3125 93.1616 94.1477C93.0593 93.9801 92.9144 93.8494 92.7269 93.7557C92.5423 93.6619 92.3263 93.6151 92.0792 93.6151C91.8292 93.6151 91.6005 93.6605 91.3931 93.7514C91.1857 93.8395 91.0195 93.9659 90.8945 94.1307C90.7695 94.2955 90.7028 94.4886 90.6942 94.7102H88.9258C88.9343 94.2074 89.0778 93.7642 89.3562 93.3807C89.6346 92.9972 90.0096 92.6974 90.4812 92.4815C90.9556 92.2628 91.4911 92.1534 92.0877 92.1534C92.69 92.1534 93.217 92.2628 93.6687 92.4815C94.1204 92.7003 94.4712 92.9957 94.7212 93.3679C94.9741 93.7372 95.0991 94.152 95.0962 94.6122C95.0991 95.1009 94.9471 95.5085 94.6403 95.8352C94.3363 96.1619 93.94 96.3693 93.4513 96.4574V96.5256C94.0934 96.608 94.582 96.831 94.9173 97.1946C95.2553 97.5554 95.4229 98.0071 95.4201 98.5497C95.4229 99.0469 95.2795 99.4886 94.9897 99.875C94.7028 100.261 94.3065 100.565 93.8008 100.787C93.2951 101.009 92.7156 101.119 92.0621 101.119Z" fill="white"/>
</svg>
