<svg width="193" height="276" viewBox="0 0 193 276" fill="none" xmlns="http://www.w3.org/2000/svg">
<path d="M105 275H1C12.2 119.4 94 27.8333 133.5 1.5L191.5 91C117.9 143.8 103.167 235.667 105 275Z" fill="#325CE5" stroke="#325CE5"/>
<path d="M78.7784 150.636C78.7784 151.588 78.598 152.398 78.2372 153.065C77.8793 153.733 77.3906 154.243 76.7713 154.595C76.1548 154.945 75.4616 155.119 74.6918 155.119C73.9162 155.119 73.2202 154.943 72.6037 154.591C71.9872 154.239 71.5 153.729 71.142 153.061C70.7841 152.393 70.6051 151.585 70.6051 150.636C70.6051 149.685 70.7841 148.875 71.142 148.207C71.5 147.54 71.9872 147.031 72.6037 146.682C73.2202 146.33 73.9162 146.153 74.6918 146.153C75.4616 146.153 76.1548 146.33 76.7713 146.682C77.3906 147.031 77.8793 147.54 78.2372 148.207C78.598 148.875 78.7784 149.685 78.7784 150.636ZM76.9077 150.636C76.9077 150.02 76.8153 149.5 76.6307 149.077C76.4489 148.653 76.1918 148.332 75.8594 148.114C75.527 147.895 75.1378 147.786 74.6918 147.786C74.2457 147.786 73.8565 147.895 73.5241 148.114C73.1918 148.332 72.9332 148.653 72.7486 149.077C72.5668 149.5 72.4759 150.02 72.4759 150.636C72.4759 151.253 72.5668 151.773 72.7486 152.196C72.9332 152.619 73.1918 152.94 73.5241 153.159C73.8565 153.378 74.2457 153.487 74.6918 153.487C75.1378 153.487 75.527 153.378 75.8594 153.159C76.1918 152.94 76.4489 152.619 76.6307 152.196C76.8153 151.773 76.9077 151.253 76.9077 150.636ZM80.1112 155V148.455H81.8711V149.597H81.9393C82.0586 149.19 82.2589 148.884 82.5401 148.676C82.8214 148.466 83.1452 148.361 83.5117 148.361C83.6026 148.361 83.7006 148.366 83.8058 148.378C83.9109 148.389 84.0032 148.405 84.0827 148.425V150.036C83.9975 150.01 83.8796 149.987 83.729 149.967C83.5785 149.947 83.4407 149.938 83.3157 149.938C83.0487 149.938 82.81 149.996 82.5998 150.112C82.3924 150.226 82.2276 150.385 82.1055 150.589C81.9862 150.794 81.9265 151.03 81.9265 151.297V155H80.1112ZM87.674 155.128C87.0121 155.128 86.4396 154.987 85.9567 154.706C85.4766 154.422 85.1058 154.027 84.8445 153.521C84.5831 153.013 84.4524 152.423 84.4524 151.753C84.4524 151.077 84.5831 150.486 84.8445 149.98C85.1058 149.472 85.4766 149.077 85.9567 148.795C86.4396 148.511 87.0121 148.369 87.674 148.369C88.3359 148.369 88.907 148.511 89.3871 148.795C89.87 149.077 90.2422 149.472 90.5036 149.98C90.7649 150.486 90.8956 151.077 90.8956 151.753C90.8956 152.423 90.7649 153.013 90.5036 153.521C90.2422 154.027 89.87 154.422 89.3871 154.706C88.907 154.987 88.3359 155.128 87.674 155.128ZM87.6825 153.722C87.9837 153.722 88.2351 153.636 88.4368 153.466C88.6385 153.293 88.7905 153.057 88.8928 152.759C88.9979 152.46 89.0504 152.121 89.0504 151.74C89.0504 151.359 88.9979 151.02 88.8928 150.722C88.7905 150.423 88.6385 150.187 88.4368 150.014C88.2351 149.841 87.9837 149.754 87.6825 149.754C87.3786 149.754 87.1229 149.841 86.9155 150.014C86.7109 150.187 86.5561 150.423 86.451 150.722C86.3487 151.02 86.2976 151.359 86.2976 151.74C86.2976 152.121 86.3487 152.46 86.451 152.759C86.5561 153.057 86.7109 153.293 86.9155 153.466C87.1229 153.636 87.3786 153.722 87.6825 153.722ZM95.1815 155L98.7994 147.841V147.781H94.5849V146.273H100.708V147.803L97.0863 155H95.1815Z" fill="white"/>
</svg>
