<svg width="186" height="149" viewBox="0 0 186 149" fill="none" xmlns="http://www.w3.org/2000/svg">
<path d="M51.5 148L1 55.5C61.4 13.5 149.167 1.66667 185.5 1V97.5C125.5 104.7 71.1667 134.167 51.5 148Z" fill="#325CE5" stroke="#325CE5"/>
<path d="M101.778 68.6364C101.778 69.5881 101.598 70.3977 101.237 71.0653C100.879 71.733 100.391 72.2429 99.7713 72.5952C99.1548 72.9446 98.4616 73.1193 97.6918 73.1193C96.9162 73.1193 96.2202 72.9432 95.6037 72.5909C94.9872 72.2386 94.5 71.7287 94.142 71.0611C93.7841 70.3935 93.6051 69.5852 93.6051 68.6364C93.6051 67.6847 93.7841 66.875 94.142 66.2074C94.5 65.5398 94.9872 65.0312 95.6037 64.6818C96.2202 64.3295 96.9162 64.1534 97.6918 64.1534C98.4616 64.1534 99.1548 64.3295 99.7713 64.6818C100.391 65.0312 100.879 65.5398 101.237 66.2074C101.598 66.875 101.778 67.6847 101.778 68.6364ZM99.9077 68.6364C99.9077 68.0199 99.8153 67.5 99.6307 67.0767C99.4489 66.6534 99.1918 66.3324 98.8594 66.1136C98.527 65.8949 98.1378 65.7855 97.6918 65.7855C97.2457 65.7855 96.8565 65.8949 96.5241 66.1136C96.1918 66.3324 95.9332 66.6534 95.7486 67.0767C95.5668 67.5 95.4759 68.0199 95.4759 68.6364C95.4759 69.2528 95.5668 69.7727 95.7486 70.196C95.9332 70.6193 96.1918 70.9403 96.5241 71.1591C96.8565 71.3778 97.2457 71.4872 97.6918 71.4872C98.1378 71.4872 98.527 71.3778 98.8594 71.1591C99.1918 70.9403 99.4489 70.6193 99.6307 70.196C99.8153 69.7727 99.9077 69.2528 99.9077 68.6364ZM103.111 73V66.4545H104.871V67.5966H104.939C105.059 67.1903 105.259 66.8835 105.54 66.6761C105.821 66.4659 106.145 66.3608 106.512 66.3608C106.603 66.3608 106.701 66.3665 106.806 66.3778C106.911 66.3892 107.003 66.4048 107.083 66.4247V68.0355C106.998 68.0099 106.88 67.9872 106.729 67.9673C106.578 67.9474 106.441 67.9375 106.316 67.9375C106.049 67.9375 105.81 67.9957 105.6 68.1122C105.392 68.2259 105.228 68.3849 105.105 68.5895C104.986 68.794 104.926 69.0298 104.926 69.2969V73H103.111ZM110.674 73.1278C110.012 73.1278 109.44 72.9872 108.957 72.706C108.477 72.4219 108.106 72.027 107.844 71.5213C107.583 71.0128 107.452 70.4233 107.452 69.7528C107.452 69.0767 107.583 68.4858 107.844 67.9801C108.106 67.4716 108.477 67.0767 108.957 66.7955C109.44 66.5114 110.012 66.3693 110.674 66.3693C111.336 66.3693 111.907 66.5114 112.387 66.7955C112.87 67.0767 113.242 67.4716 113.504 67.9801C113.765 68.4858 113.896 69.0767 113.896 69.7528C113.896 70.4233 113.765 71.0128 113.504 71.5213C113.242 72.027 112.87 72.4219 112.387 72.706C111.907 72.9872 111.336 73.1278 110.674 73.1278ZM110.683 71.7216C110.984 71.7216 111.235 71.6364 111.437 71.4659C111.638 71.2926 111.79 71.0568 111.893 70.7585C111.998 70.4602 112.05 70.1207 112.05 69.7401C112.05 69.3594 111.998 69.0199 111.893 68.7216C111.79 68.4233 111.638 68.1875 111.437 68.0142C111.235 67.8409 110.984 67.7543 110.683 67.7543C110.379 67.7543 110.123 67.8409 109.915 68.0142C109.711 68.1875 109.556 68.4233 109.451 68.7216C109.349 69.0199 109.298 69.3594 109.298 69.7401C109.298 70.1207 109.349 70.4602 109.451 70.7585C109.556 71.0568 109.711 71.2926 109.915 71.4659C110.123 71.6364 110.379 71.7216 110.683 71.7216ZM121.092 73.1193C120.436 73.1193 119.852 73.0128 119.341 72.7997C118.832 72.5838 118.433 72.2898 118.143 71.9176C117.853 71.5455 117.708 71.1236 117.708 70.652C117.708 70.2884 117.791 69.9545 117.956 69.6506C118.123 69.3438 118.35 69.0895 118.637 68.8878C118.924 68.6832 119.245 68.5526 119.6 68.4957V68.4361C119.135 68.3423 118.757 68.1165 118.467 67.7585C118.177 67.3977 118.032 66.9787 118.032 66.5014C118.032 66.0497 118.164 65.6477 118.429 65.2955C118.693 64.9403 119.055 64.6619 119.515 64.4602C119.978 64.2557 120.504 64.1534 121.092 64.1534C121.68 64.1534 122.204 64.2557 122.664 64.4602C123.127 64.6648 123.491 64.9446 123.755 65.2997C124.02 65.652 124.153 66.0526 124.156 66.5014C124.153 66.9815 124.005 67.4006 123.713 67.7585C123.42 68.1165 123.045 68.3423 122.588 68.4361V68.4957C122.937 68.5526 123.254 68.6832 123.538 68.8878C123.825 69.0895 124.052 69.3438 124.22 69.6506C124.39 69.9545 124.477 70.2884 124.48 70.652C124.477 71.1236 124.331 71.5455 124.041 71.9176C123.751 72.2898 123.35 72.5838 122.839 72.7997C122.331 73.0128 121.748 73.1193 121.092 73.1193ZM121.092 71.7642C121.385 71.7642 121.64 71.7116 121.859 71.6065C122.078 71.4986 122.248 71.3509 122.37 71.1634C122.495 70.973 122.558 70.7543 122.558 70.5071C122.558 70.2543 122.494 70.0312 122.366 69.8381C122.238 69.642 122.065 69.4886 121.846 69.3778C121.627 69.2642 121.376 69.2074 121.092 69.2074C120.811 69.2074 120.559 69.2642 120.338 69.3778C120.116 69.4886 119.941 69.642 119.814 69.8381C119.689 70.0312 119.626 70.2543 119.626 70.5071C119.626 70.7543 119.687 70.973 119.809 71.1634C119.931 71.3509 120.103 71.4986 120.325 71.6065C120.547 71.7116 120.802 71.7642 121.092 71.7642ZM121.092 67.8651C121.336 67.8651 121.554 67.8153 121.744 67.7159C121.934 67.6165 122.083 67.4787 122.191 67.3026C122.299 67.1264 122.353 66.9233 122.353 66.6932C122.353 66.4659 122.299 66.267 122.191 66.0966C122.083 65.9233 121.936 65.7884 121.748 65.6918C121.561 65.5923 121.342 65.5426 121.092 65.5426C120.845 65.5426 120.626 65.5923 120.436 65.6918C120.245 65.7884 120.096 65.9233 119.988 66.0966C119.883 66.267 119.831 66.4659 119.831 66.6932C119.831 66.9233 119.885 67.1264 119.993 67.3026C120.1 67.4787 120.25 67.6165 120.44 67.7159C120.63 67.8153 120.848 67.8651 121.092 67.8651Z" fill="white"/>
</svg>
