<svg width="120" height="169" viewBox="0 0 120 169" fill="none" xmlns="http://www.w3.org/2000/svg">
<path d="M68 1.5L1 40C38.6 91.6 43 147.167 40.5 168.5H118C126.8 84.9 88.3333 22.3333 68 1.5Z" fill="#325CE5" stroke="#325CE5"/>
<path d="M66.7784 90.6364C66.7784 91.5881 66.598 92.3977 66.2372 93.0653C65.8793 93.733 65.3906 94.2429 64.7713 94.5952C64.1548 94.9446 63.4616 95.1193 62.6918 95.1193C61.9162 95.1193 61.2202 94.9432 60.6037 94.5909C59.9872 94.2386 59.5 93.7287 59.142 93.0611C58.7841 92.3935 58.6051 91.5852 58.6051 90.6364C58.6051 89.6847 58.7841 88.875 59.142 88.2074C59.5 87.5398 59.9872 87.0312 60.6037 86.6818C61.2202 86.3295 61.9162 86.1534 62.6918 86.1534C63.4616 86.1534 64.1548 86.3295 64.7713 86.6818C65.3906 87.0312 65.8793 87.5398 66.2372 88.2074C66.598 88.875 66.7784 89.6847 66.7784 90.6364ZM64.9077 90.6364C64.9077 90.0199 64.8153 89.5 64.6307 89.0767C64.4489 88.6534 64.1918 88.3324 63.8594 88.1136C63.527 87.8949 63.1378 87.7855 62.6918 87.7855C62.2457 87.7855 61.8565 87.8949 61.5241 88.1136C61.1918 88.3324 60.9332 88.6534 60.7486 89.0767C60.5668 89.5 60.4759 90.0199 60.4759 90.6364C60.4759 91.2528 60.5668 91.7727 60.7486 92.196C60.9332 92.6193 61.1918 92.9403 61.5241 93.1591C61.8565 93.3778 62.2457 93.4872 62.6918 93.4872C63.1378 93.4872 63.527 93.3778 63.8594 93.1591C64.1918 92.9403 64.4489 92.6193 64.6307 92.196C64.8153 91.7727 64.9077 91.2528 64.9077 90.6364ZM68.1112 95V88.4545H69.8711V89.5966H69.9393C70.0586 89.1903 70.2589 88.8835 70.5401 88.6761C70.8214 88.4659 71.1452 88.3608 71.5117 88.3608C71.6026 88.3608 71.7006 88.3665 71.8058 88.3778C71.9109 88.3892 72.0032 88.4048 72.0827 88.4247V90.0355C71.9975 90.0099 71.8796 89.9872 71.729 89.9673C71.5785 89.9474 71.4407 89.9375 71.3157 89.9375C71.0487 89.9375 70.81 89.9957 70.5998 90.1122C70.3924 90.2259 70.2276 90.3849 70.1055 90.5895C69.9862 90.794 69.9265 91.0298 69.9265 91.2969V95H68.1112ZM75.674 95.1278C75.0121 95.1278 74.4396 94.9872 73.9567 94.706C73.4766 94.4219 73.1058 94.027 72.8445 93.5213C72.5831 93.0128 72.4524 92.4233 72.4524 91.7528C72.4524 91.0767 72.5831 90.4858 72.8445 89.9801C73.1058 89.4716 73.4766 89.0767 73.9567 88.7955C74.4396 88.5114 75.0121 88.3693 75.674 88.3693C76.3359 88.3693 76.907 88.5114 77.3871 88.7955C77.87 89.0767 78.2422 89.4716 78.5036 89.9801C78.7649 90.4858 78.8956 91.0767 78.8956 91.7528C78.8956 92.4233 78.7649 93.0128 78.5036 93.5213C78.2422 94.027 77.87 94.4219 77.3871 94.706C76.907 94.9872 76.3359 95.1278 75.674 95.1278ZM75.6825 93.7216C75.9837 93.7216 76.2351 93.6364 76.4368 93.4659C76.6385 93.2926 76.7905 93.0568 76.8928 92.7585C76.9979 92.4602 77.0504 92.1207 77.0504 91.7401C77.0504 91.3594 76.9979 91.0199 76.8928 90.7216C76.7905 90.4233 76.6385 90.1875 76.4368 90.0142C76.2351 89.8409 75.9837 89.7543 75.6825 89.7543C75.3786 89.7543 75.1229 89.8409 74.9155 90.0142C74.7109 90.1875 74.5561 90.4233 74.451 90.7216C74.3487 91.0199 74.2976 91.3594 74.2976 91.7401C74.2976 92.1207 74.3487 92.4602 74.451 92.7585C74.5561 93.0568 74.7109 93.2926 74.9155 93.4659C75.1229 93.6364 75.3786 93.7216 75.6825 93.7216ZM82.8363 95V93.6705L85.9428 90.794C86.207 90.5384 86.4286 90.3082 86.6076 90.1037C86.7894 89.8991 86.9272 89.6989 87.021 89.5028C87.1147 89.304 87.1616 89.0895 87.1616 88.8594C87.1616 88.6037 87.1033 88.3835 86.9869 88.1989C86.8704 88.0114 86.7113 87.8679 86.5096 87.7685C86.3079 87.6662 86.0792 87.6151 85.8235 87.6151C85.5565 87.6151 85.3235 87.669 85.1246 87.777C84.9258 87.8849 84.7724 88.0398 84.6644 88.2415C84.5565 88.4432 84.5025 88.6832 84.5025 88.9616H82.7511C82.7511 88.3906 82.8803 87.8949 83.1388 87.4744C83.3974 87.054 83.7596 86.7287 84.2255 86.4986C84.6914 86.2685 85.2283 86.1534 85.8363 86.1534C86.4613 86.1534 87.0053 86.2642 87.4684 86.4858C87.9343 86.7045 88.2965 87.0085 88.555 87.3977C88.8136 87.7869 88.9428 88.233 88.9428 88.7358C88.9428 89.0653 88.8775 89.3906 88.7468 89.7116C88.619 90.0327 88.3903 90.3892 88.0607 90.7812C87.7312 91.1705 87.2667 91.6378 86.6673 92.1832L85.3931 93.4318V93.4915H89.0579V95H82.8363Z" fill="white"/>
</svg>
