<svg width="198" height="217" viewBox="0 0 198 217" fill="none" xmlns="http://www.w3.org/2000/svg">
<path d="M128.5 4.5C112.5 92.9 36.8333 122.667 1 126.5V215.5C164.2 207.9 199.667 69.3333 197 1L128.5 4.5Z" fill="#325CE5" stroke="#325CE5"/>
<path d="M110.335 103.273L112.445 109.903H112.526L114.639 103.273H116.685L113.676 112H111.298L108.286 103.273H110.335ZM119.58 103.273V112H117.735V103.273H119.58ZM121.098 112V103.273H124.542C125.203 103.273 125.767 103.399 126.233 103.652C126.699 103.902 127.054 104.25 127.299 104.696C127.546 105.139 127.669 105.651 127.669 106.23C127.669 106.81 127.544 107.321 127.294 107.764C127.044 108.207 126.682 108.553 126.208 108.8C125.736 109.047 125.165 109.17 124.495 109.17H122.3V107.692H124.196C124.551 107.692 124.844 107.631 125.074 107.509C125.307 107.384 125.48 107.212 125.594 106.993C125.711 106.771 125.769 106.517 125.769 106.23C125.769 105.94 125.711 105.687 125.594 105.472C125.48 105.253 125.307 105.084 125.074 104.964C124.841 104.842 124.546 104.781 124.188 104.781H122.944V112H121.098ZM131.594 112V110.67L134.701 107.794C134.965 107.538 135.186 107.308 135.365 107.104C135.547 106.899 135.685 106.699 135.779 106.503C135.873 106.304 135.919 106.089 135.919 105.859C135.919 105.604 135.861 105.384 135.745 105.199C135.628 105.011 135.469 104.868 135.267 104.768C135.066 104.666 134.837 104.615 134.581 104.615C134.314 104.615 134.081 104.669 133.882 104.777C133.684 104.885 133.53 105.04 133.422 105.241C133.314 105.443 133.26 105.683 133.26 105.962H131.509C131.509 105.391 131.638 104.895 131.897 104.474C132.155 104.054 132.517 103.729 132.983 103.499C133.449 103.268 133.986 103.153 134.594 103.153C135.219 103.153 135.763 103.264 136.226 103.486C136.692 103.705 137.054 104.009 137.313 104.398C137.571 104.787 137.701 105.233 137.701 105.736C137.701 106.065 137.635 106.391 137.505 106.712C137.377 107.033 137.148 107.389 136.819 107.781C136.489 108.17 136.025 108.638 135.425 109.183L134.151 110.432V110.491H137.816V112H131.594Z" fill="white"/>
</svg>
