<svg width="217" height="214" viewBox="0 0 217 214" fill="none" xmlns="http://www.w3.org/2000/svg">
<path d="M87.5 1C100.3 96.2 178.5 123 216 124.5V213.5C46 213.1 1.5 71.6667 0.5 1H87.5Z" fill="#325CE5" stroke="#325CE5"/>
<path d="M84.3352 114.273L86.4446 120.903H86.5256L88.6392 114.273H90.6847L87.6761 123H85.2983L82.2855 114.273H84.3352ZM93.5803 114.273V123H91.7351V114.273H93.5803ZM95.0984 123V114.273H98.5415C99.2035 114.273 99.7674 114.399 100.233 114.652C100.699 114.902 101.054 115.25 101.299 115.696C101.546 116.139 101.669 116.651 101.669 117.23C101.669 117.81 101.544 118.321 101.294 118.764C101.044 119.207 100.682 119.553 100.208 119.8C99.7362 120.047 99.1651 120.17 98.4947 120.17H96.3001V118.692H98.1964C98.5515 118.692 98.8441 118.631 99.0742 118.509C99.3072 118.384 99.4805 118.212 99.5941 117.993C99.7106 117.771 99.7688 117.517 99.7688 117.23C99.7688 116.94 99.7106 116.687 99.5941 116.472C99.4805 116.253 99.3072 116.084 99.0742 115.964C98.8413 115.842 98.5458 115.781 98.1879 115.781H96.9435V123H95.0984ZM108.82 123.119C108.184 123.119 107.617 123.01 107.12 122.791C106.625 122.57 106.235 122.266 105.948 121.879C105.664 121.49 105.517 121.041 105.509 120.533H107.367C107.378 120.746 107.448 120.933 107.576 121.095C107.706 121.254 107.88 121.378 108.096 121.466C108.311 121.554 108.554 121.598 108.824 121.598C109.105 121.598 109.354 121.548 109.57 121.449C109.786 121.349 109.955 121.212 110.077 121.036C110.199 120.859 110.26 120.656 110.26 120.426C110.26 120.193 110.195 119.987 110.064 119.808C109.936 119.626 109.752 119.484 109.51 119.382C109.272 119.28 108.988 119.229 108.658 119.229H107.844V117.874H108.658C108.936 117.874 109.182 117.825 109.395 117.729C109.611 117.632 109.779 117.499 109.898 117.328C110.017 117.155 110.077 116.953 110.077 116.723C110.077 116.504 110.025 116.312 109.919 116.148C109.817 115.98 109.672 115.849 109.485 115.756C109.3 115.662 109.084 115.615 108.837 115.615C108.587 115.615 108.358 115.661 108.151 115.751C107.944 115.839 107.777 115.966 107.652 116.131C107.527 116.295 107.461 116.489 107.452 116.71H105.684C105.692 116.207 105.836 115.764 106.114 115.381C106.392 114.997 106.767 114.697 107.239 114.482C107.713 114.263 108.249 114.153 108.846 114.153C109.448 114.153 109.975 114.263 110.426 114.482C110.878 114.7 111.229 114.996 111.479 115.368C111.732 115.737 111.857 116.152 111.854 116.612C111.857 117.101 111.705 117.509 111.398 117.835C111.094 118.162 110.698 118.369 110.209 118.457V118.526C110.851 118.608 111.34 118.831 111.675 119.195C112.013 119.555 112.181 120.007 112.178 120.55C112.181 121.047 112.037 121.489 111.748 121.875C111.461 122.261 111.064 122.565 110.559 122.787C110.053 123.009 109.473 123.119 108.82 123.119Z" fill="white"/>
</svg>
