<svg width="214" height="237" viewBox="0 0 214 237" fill="none" xmlns="http://www.w3.org/2000/svg">
<path d="M90 236H1.5C5.1 66.4 144 9 213 1.5V36C198.2 35.6 187.167 40.1667 183.5 42.5L190 122C111.2 144.4 90.5 207.333 90 236Z" fill="#325CE5" stroke="#325CE5"/>
<path d="M80.3352 116.273L82.4446 122.903H82.5256L84.6392 116.273H86.6847L83.6761 125H81.2983L78.2855 116.273H80.3352ZM89.5803 116.273V125H87.7351V116.273H89.5803ZM91.0984 125V116.273H94.5415C95.2035 116.273 95.7674 116.399 96.2333 116.652C96.6992 116.902 97.0543 117.25 97.2987 117.696C97.5458 118.139 97.6694 118.651 97.6694 119.23C97.6694 119.81 97.5444 120.321 97.2944 120.764C97.0444 121.207 96.6822 121.553 96.2077 121.8C95.7362 122.047 95.1651 122.17 94.4947 122.17H92.3001V120.692H94.1964C94.5515 120.692 94.8441 120.631 95.0742 120.509C95.3072 120.384 95.4805 120.212 95.5941 119.993C95.7106 119.771 95.7688 119.517 95.7688 119.23C95.7688 118.94 95.7106 118.687 95.5941 118.472C95.4805 118.253 95.3072 118.084 95.0742 117.964C94.8413 117.842 94.5458 117.781 94.1879 117.781H92.9435V125H91.0984ZM101.462 123.466V122.013L105.105 116.273H106.358V118.284H105.617L103.32 121.919V121.987H108.498V123.466H101.462ZM105.651 125V123.023L105.685 122.379V116.273H107.415V125H105.651Z" fill="white"/>
</svg>
