<svg width="197" height="239" viewBox="0 0 197 239" fill="none" xmlns="http://www.w3.org/2000/svg">
<path d="M128 238C114.8 152.8 45.5 119.833 12.5 114C12.5 92 21 43.5 21 43.5L0.5 36.5V1C154.9 39.4 195.833 178 196.5 238H128Z" fill="#325CE5" stroke="#325CE5"/>
<path d="M97.3352 116.273L99.4446 122.903H99.5256L101.639 116.273H103.685L100.676 125H98.2983L95.2855 116.273H97.3352ZM106.58 116.273V125H104.735V116.273H106.58ZM108.098 125V116.273H111.542C112.203 116.273 112.767 116.399 113.233 116.652C113.699 116.902 114.054 117.25 114.299 117.696C114.546 118.139 114.669 118.651 114.669 119.23C114.669 119.81 114.544 120.321 114.294 120.764C114.044 121.207 113.682 121.553 113.208 121.8C112.736 122.047 112.165 122.17 111.495 122.17H109.3V120.692H111.196C111.551 120.692 111.844 120.631 112.074 120.509C112.307 120.384 112.48 120.212 112.594 119.993C112.711 119.771 112.769 119.517 112.769 119.23C112.769 118.94 112.711 118.687 112.594 118.472C112.48 118.253 112.307 118.084 112.074 117.964C111.841 117.842 111.546 117.781 111.188 117.781H109.944V125H108.098ZM122.391 116.273V125H120.546V118.024H120.495L118.496 119.277V117.641L120.657 116.273H122.391Z" fill="white"/>
</svg>
