<svg width="100" height="100" viewBox="0 0 100 100" fill="none" xmlns="http://www.w3.org/2000/svg">
<circle cx="50" cy="50" r="50" fill="#3B01C9"/>
<path fill-rule="evenodd" clip-rule="evenodd" d="M50 66.3636C59.0374 66.3636 66.3636 59.0374 66.3636 50C66.3636 40.9626 59.0374 33.6364 50 33.6364C40.9626 33.6364 33.6364 40.9626 33.6364 50C33.6364 59.0374 40.9626 66.3636 50 66.3636ZM50 60.9091C56.0248 60.9091 60.9091 56.0248 60.9091 50C60.9091 43.9751 56.0248 39.0909 50 39.0909C43.9751 39.0909 39.0909 43.9751 39.0909 50C39.0909 56.0248 43.9751 60.9091 50 60.9091Z" fill="white"/>
<path d="M66.3637 30.9091C64.8575 30.9091 63.6365 32.1301 63.6365 33.6364C63.6365 35.1426 64.8575 36.3636 66.3637 36.3636C67.87 36.3636 69.091 35.1426 69.091 33.6364C69.091 32.1301 67.87 30.9091 66.3637 30.9091Z" fill="white"/>
<path fill-rule="evenodd" clip-rule="evenodd" d="M21.7835 28.9347C20 32.4351 20 37.0173 20 46.1818V53.8182C20 62.9826 20 67.565 21.7835 71.0652C23.3524 74.1443 25.8557 76.6476 28.9347 78.2164C32.4351 80 37.0173 80 46.1818 80H53.8182C62.9826 80 67.565 80 71.0652 78.2164C74.1443 76.6476 76.6476 74.1443 78.2164 71.0652C80 67.565 80 62.9826 80 53.8182V46.1818C80 37.0173 80 32.4351 78.2164 28.9347C76.6476 25.8557 74.1443 23.3524 71.0652 21.7835C67.565 20 62.9826 20 53.8182 20H46.1818C37.0173 20 32.4351 20 28.9347 21.7835C25.8557 23.3524 23.3524 25.8557 21.7835 28.9347ZM53.8182 25.4545H46.1818C41.5096 25.4545 38.3334 25.4588 35.8784 25.6594C33.487 25.8547 32.2641 26.2089 31.411 26.6436C29.3583 27.6895 27.6895 29.3583 26.6436 31.411C26.2089 32.2641 25.8547 33.487 25.6594 35.8784C25.4588 38.3334 25.4545 41.5096 25.4545 46.1818V53.8182C25.4545 58.4905 25.4588 61.6665 25.6594 64.1215C25.8547 66.5131 26.2089 67.736 26.6436 68.5891C27.6895 70.6416 29.3583 72.3105 31.411 73.3564C32.2641 73.7911 33.487 74.1454 35.8784 74.3406C38.3334 74.5411 41.5096 74.5455 46.1818 74.5455H53.8182C58.4905 74.5455 61.6665 74.5411 64.1215 74.3406C66.5131 74.1454 67.736 73.7911 68.5891 73.3564C70.6416 72.3105 72.3105 70.6416 73.3564 68.5891C73.7911 67.736 74.1454 66.5131 74.3406 64.1215C74.5411 61.6665 74.5455 58.4905 74.5455 53.8182V46.1818C74.5455 41.5096 74.5411 38.3334 74.3406 35.8784C74.1454 33.487 73.7911 32.2641 73.3564 31.411C72.3105 29.3583 70.6416 27.6895 68.5891 26.6436C67.736 26.2089 66.5131 25.8547 64.1215 25.6594C61.6665 25.4588 58.4905 25.4545 53.8182 25.4545Z" fill="white"/>
</svg>
