<svg width="100" height="100" viewBox="0 0 100 100" fill="none" xmlns="http://www.w3.org/2000/svg">
<circle cx="50" cy="50" r="50" fill="#3B01C9"/>
<path d="M72.3881 29.9732C71.9221 29.729 71.4684 29.4613 71.0289 29.1711C69.7506 28.3141 68.5785 27.3044 67.5381 26.1636C64.9347 23.143 63.9624 20.0786 63.6042 17.9331H63.6186C63.3195 16.1522 63.4432 15 63.4619 15H51.6044V61.4949C51.6044 62.1192 51.6044 62.7361 51.5785 63.3458C51.5785 63.4216 51.5713 63.4917 51.567 63.5733C51.567 63.6069 51.567 63.6419 51.5598 63.6769C51.5598 63.6856 51.5598 63.6944 51.5598 63.7031C51.4348 65.3714 50.9074 66.9829 50.0241 68.3959C49.1408 69.809 47.9285 70.9803 46.494 71.8067C44.9989 72.6692 43.308 73.1217 41.5879 73.1194C36.0633 73.1194 31.5858 68.5513 31.5858 62.9097C31.5858 57.2681 36.0633 52.7 41.5879 52.7C42.6337 52.699 43.673 52.8659 44.6673 53.1945L44.6817 40.9516C41.6632 40.5562 38.5967 40.7995 35.6755 41.666C32.7543 42.5326 30.042 44.0037 27.7096 45.9864C25.6658 47.7871 23.9476 49.9357 22.6323 52.3354C22.1318 53.2105 20.2432 56.727 20.0145 62.4342C19.8707 65.6736 20.8301 69.0297 21.2875 70.4167V70.4459C21.5751 71.2627 22.6898 74.0499 24.5064 76.3996C25.9713 78.2844 27.7019 79.9401 29.6427 81.3134V81.2842L29.6714 81.3134C35.4118 85.2689 41.7763 85.0093 41.7763 85.0093C42.8781 84.9641 46.5688 85.0093 50.7601 82.9951C55.4087 80.7621 58.0552 77.4352 58.0552 77.4352C59.7459 75.4473 61.0903 73.1819 62.0307 70.7362C63.1037 67.876 63.4619 64.4455 63.4619 63.0745V38.4079C63.6057 38.4954 65.5215 39.7804 65.5215 39.7804C65.5215 39.7804 68.2817 41.5744 72.588 42.7426C75.6775 43.574 79.84 43.749 79.84 43.749V31.8124C78.3815 31.9729 75.42 31.5062 72.3881 29.9732Z" fill="white"/>
</svg>
